<svg data-v-423bf9ae="" xmlns="http://www.w3.org/2000/svg" viewBox="0 0 349 112" class="iconLeftSlogan"><!----><defs data-v-423bf9ae=""><linearGradient data-v-423bf9ae="" gradientTransform="rotate(25)" id="13f73c0e-89a8-49cc-9b15-49b1aabddf55" x1="0%" y1="0%" x2="100%" y2="0%"><stop data-v-423bf9ae="" offset="0%" style="stop-color: rgb(70, 42, 185); stop-opacity: 1;"></stop><stop data-v-423bf9ae="" offset="100%" style="stop-color: rgb(115, 112, 72); stop-opacity: 1;"></stop></linearGradient></defs><!----><g data-v-423bf9ae="" id="cd67baa2-83d7-4c39-916f-accb5af8059b" fill="#ffffff" transform="matrix(6.857142857142857,0,0,6.857142857142857,88.03976496628354,-57.80571637834821)"><path d="M2.86 13.66L2.86 17.18L1.13 17.18L1.13 8.43L6.12 8.43L5.92 9.86L2.86 9.86L2.86 12.35L5.56 12.35L5.56 13.66L2.86 13.66ZM7.50 17.18L7.50 8.43L9.23 8.43L9.23 15.75L12.32 15.75L12.32 17.18L7.50 17.18ZM18.37 17.18L17.85 15.34L14.70 15.34L14.17 17.18L12.45 17.18L14.95 8.43L17.58 8.43L20.09 17.18L18.37 17.18ZM15.06 14.03L17.47 14.03L16.34 10.04L16.21 10.04L15.06 14.03ZM21.20 17.18L21.77 8.43L24.07 8.43L25.82 14.49L25.91 14.49L27.66 8.43L29.96 8.43L30.53 17.18L28.83 17.18L28.43 10.89L28.35 10.89L26.54 17.18L25.19 17.18L23.38 10.89L23.30 10.89L22.90 17.18L21.20 17.18ZM34.31 13.47L34.31 15.75L38.04 15.75L38.04 17.18L32.59 17.18L32.59 8.43L38.02 8.43L37.81 9.86L34.31 9.86L34.31 12.14L37.51 12.14L37.51 13.47L34.31 13.47Z"></path></g><!----><g data-v-423bf9ae="" id="eb7113bb-cecf-4754-82b8-15dae2829984" transform="matrix(1.1111111111111112,0,0,1.1111111111111112,-17.660330772399902,0.44444444444444287)" stroke="none" fill="#ffffff"><path d="M70.648 19.656s-1.046 2.302-.837 4.602c.209 2.301 2.72 3.137 2.72 3.137s1.198-3.301.326-5.232c-.871-1.932-2.209-2.507-2.209-2.507z"></path><path d="M83.446 54.733c-2.389-16.672-11.125-22.944-11.125-22.944s4.637 8.959-5.199 17.475c-.864-2.816-2.02-5.574-3.306-8.243-4.519-9.386.648-14.836-.229-23.53C62.71 8.798 57.907 0 51.997 0c0 0 5.604 4.851 1.738 13.557-1.941 4.995-7.05 6.853-11.926 14.748-4.877 7.896-3.548 12.527-4.742 16.324-6.14-6.857 1.758-19.799-3.657-26.229.736 9.673-7.393 10.371-13.807 25.942C8.483 78.702 23.347 100 51.234 100c22.507.001 36.093-16.886 32.212-45.267zm-8.944 16.964C71.534 85.456 62.943 91.01 49.704 91.01c-12.618 0-22.993-10.372-22.993-26.962-.408-9.561 2.315-14.933 5.774-19.409.312 8.324 3.597 11.317 6.759 13.155 1.001-8.692 11.094-13.275 11.472-24.641 2.645 0 10.945 10.266 9.207 18.61-1.328 6.374 3.202 12.083 3.202 12.083 6.379-.388 8.813-9.521 8.813-9.521s4.342 7.022 2.564 17.372z"></path></g><!----><g data-v-423bf9ae="" id="aa1b2716-d39a-4820-b030-87187e1d46df" fill="#ffffff" transform="matrix(0.8937835236576525,0,0,0.8937835236576525,95.67214532577907,53.64519883611324)"><path d="M5.24 8.43L7.03 8.43L4.44 14.21L4.44 17.18L2.72 17.18L2.72 14.21L0.13 8.43L1.92 8.43L3.58 12.42L5.24 8.43ZM10.32 17.33L10.32 17.33Q9.06 17.33 8.38 17.01L8.38 17.01L8.38 17.01Q7.70 16.69 7.41 15.91L7.41 15.91L7.41 15.91Q7.13 15.13 7.13 13.68L7.13 13.68L7.13 13.68Q7.13 12.22 7.41 11.45L7.41 11.45L7.41 11.45Q7.70 10.67 8.38 10.35L8.38 10.35L8.38 10.35Q9.06 10.02 10.32 10.02L10.32 10.02L10.32 10.02Q11.59 10.02 12.27 10.35L12.27 10.35L12.27 10.35Q12.95 10.67 13.23 11.45L13.23 11.45L13.23 11.45Q13.51 12.22 13.51 13.68L13.51 13.68L13.51 13.68Q13.51 15.13 13.22 15.91L13.22 15.91L13.22 15.91Q12.94 16.69 12.26 17.01L12.26 17.01L12.26 17.01Q11.58 17.33 10.32 17.33L10.32 17.33ZM8.95 15.97L11.06 15.97L11.06 15.97Q11.44 15.97 11.57 15.90L11.57 15.90L11.57 15.90Q11.70 15.82 11.70 15.61L11.70 15.61L11.70 11.38L9.59 11.38L9.59 11.38Q9.21 11.38 9.08 11.46L9.08 11.46L9.08 11.46Q8.95 11.54 8.95 11.75L8.95 11.75L8.95 15.97ZM21.25 10.18L21.25 17.18L20.43 17.18L19.98 16.48L19.98 16.48Q18.86 17.33 17.22 17.33L17.22 17.33L17.22 17.33Q16.23 17.33 15.77 16.95L15.77 16.95L15.77 16.95Q15.32 16.56 15.32 15.74L15.32 15.74L15.32 10.18L17.04 10.18L17.04 16.07L18.48 16.07L18.48 16.07Q19.08 16.07 19.31 15.92L19.31 15.92L19.31 15.92Q19.53 15.76 19.53 15.36L19.53 15.36L19.53 10.18L21.25 10.18ZM24.33 10.18L24.89 11.24L24.89 11.24Q25.47 10.71 25.93 10.41L25.93 10.41L25.93 10.41Q26.39 10.11 26.84 9.97L26.84 9.97L26.99 11.65L26.99 11.65Q26.56 11.77 26.05 12.01L26.05 12.01L26.05 12.01Q25.54 12.24 25.23 12.47L25.23 12.47L25.23 17.18L23.51 17.18L23.51 10.18L24.33 10.18ZM33.36 14.48L33.36 17.18L31.64 17.18L31.64 8.43L35.20 8.43L35.20 8.43Q36.19 8.43 36.76 8.72L36.76 8.72L36.76 8.72Q37.34 9.02 37.60 9.67L37.60 9.67L37.60 9.67Q37.86 10.32 37.86 11.45L37.86 11.45L37.86 11.45Q37.86 13.06 37.28 13.77L37.28 13.77L37.28 13.77Q36.71 14.48 35.41 14.48L35.41 14.48L33.36 14.48ZM33.36 13.15L35.18 13.15L35.18 13.15Q35.67 13.15 35.86 13.02L35.86 13.02L35.86 13.02Q36.05 12.89 36.05 12.56L36.05 12.56L36.05 10.44L36.05 10.44Q36.05 10.11 35.86 9.98L35.86 9.98L35.86 9.98Q35.67 9.86 35.18 9.86L35.18 9.86L33.36 9.86L33.36 13.15ZM42.03 10.02L42.03 10.02Q43.51 10.02 44.13 10.50L44.13 10.50L44.13 10.50Q44.76 10.98 44.76 12.10L44.76 12.10L44.76 17.18L43.93 17.18L43.48 16.48L43.48 16.48Q42.49 17.33 41.01 17.33L41.01 17.33L41.01 17.33Q39.83 17.33 39.31 16.83L39.31 16.83L39.31 16.83Q38.79 16.32 38.79 15.18L38.79 15.18L38.79 15.18Q38.79 14.20 39.09 13.73L39.09 13.73L39.09 13.73Q39.40 13.27 40.22 13.10L40.22 13.10L40.22 13.10Q41.03 12.92 42.77 12.92L42.77 12.92L43.04 12.92L43.04 11.48L43.04 11.48Q42.56 11.34 41.78 11.34L41.78 11.34L41.78 11.34Q40.60 11.34 39.33 11.69L39.33 11.69L39.10 10.46L39.10 10.46Q39.68 10.26 40.47 10.14L40.47 10.14L40.47 10.14Q41.26 10.02 42.03 10.02L42.03 10.02ZM41.94 16.07L41.94 16.07Q42.57 16.07 42.80 15.91L42.80 15.91L42.80 15.91Q43.04 15.75 43.04 15.32L43.04 15.32L43.04 13.94L41.47 13.94L41.47 13.94Q40.82 13.94 40.59 14.11L40.59 14.11L40.59 14.11Q40.36 14.27 40.36 14.71L40.36 14.71L40.36 16.07L41.94 16.07ZM50.25 11.34L49.06 11.34L49.06 15.92L49.06 15.92Q49.48 15.99 50.01 16.00L50.01 16.00L49.92 17.16L49.92 17.16Q49.13 17.33 48.55 17.33L48.55 17.33L48.55 17.33Q47.94 17.33 47.64 17.05L47.64 17.05L47.64 17.05Q47.33 16.77 47.33 16.17L47.33 16.17L47.33 11.34L46.42 11.34L46.42 10.18L47.33 10.18L47.33 8.76L49.06 8.33L49.06 10.18L50.25 10.18L50.25 11.34ZM51.94 17.18L51.94 8.01L53.63 7.87L53.63 10.60L53.63 10.60Q54.07 10.30 54.61 10.16L54.61 10.16L54.61 10.16Q55.15 10.02 55.86 10.02L55.86 10.02L55.86 10.02Q56.84 10.02 57.36 10.35L57.36 10.35L57.36 10.35Q57.88 10.68 57.88 11.31L57.88 11.31L57.88 17.18L56.15 17.18L56.15 11.44L54.80 11.44L54.80 11.44Q54.14 11.44 53.90 11.60L53.90 11.60L53.90 11.60Q53.66 11.76 53.66 12.19L53.66 12.19L53.66 17.18L51.94 17.18ZM66.70 11.34L65.51 11.34L65.51 15.92L65.51 15.92Q65.93 15.99 66.46 16.00L66.46 16.00L66.37 17.16L66.37 17.16Q65.58 17.33 65.00 17.33L65.00 17.33L65.00 17.33Q64.39 17.33 64.09 17.05L64.09 17.05L64.09 17.05Q63.78 16.77 63.78 16.17L63.78 16.17L63.78 11.34L62.87 11.34L62.87 10.18L63.78 10.18L63.78 8.76L65.51 8.33L65.51 10.18L66.70 10.18L66.70 11.34ZM71.19 17.33L71.19 17.33Q69.93 17.33 69.25 17.01L69.25 17.01L69.25 17.01Q68.57 16.69 68.28 15.91L68.28 15.91L68.28 15.91Q68.00 15.13 68.00 13.68L68.00 13.68L68.00 13.68Q68.00 12.22 68.28 11.45L68.28 11.45L68.28 11.45Q68.57 10.67 69.25 10.35L69.25 10.35L69.25 10.35Q69.93 10.02 71.19 10.02L71.19 10.02L71.19 10.02Q72.46 10.02 73.14 10.35L73.14 10.35L73.14 10.35Q73.82 10.67 74.10 11.45L74.10 11.45L74.10 11.45Q74.38 12.22 74.38 13.68L74.38 13.68L74.38 13.68Q74.38 15.13 74.09 15.91L74.09 15.91L74.09 15.91Q73.81 16.69 73.13 17.01L73.13 17.01L73.13 17.01Q72.45 17.33 71.19 17.33L71.19 17.33ZM69.82 15.97L71.93 15.97L71.93 15.97Q72.31 15.97 72.44 15.90L72.44 15.90L72.44 15.90Q72.58 15.82 72.58 15.61L72.58 15.61L72.58 11.38L70.46 11.38L70.46 11.38Q70.08 11.38 69.95 11.46L69.95 11.46L69.95 11.46Q69.82 11.54 69.82 11.75L69.82 11.75L69.82 15.97ZM81.33 13.66L81.33 17.18L79.60 17.18L79.60 8.43L84.59 8.43L84.39 9.86L81.33 9.86L81.33 12.35L84.03 12.35L84.03 13.66L81.33 13.66ZM85.83 17.18L85.83 17.18ZM85.97 10.33L87.70 10.09L87.70 17.18L85.97 17.18L85.97 10.33ZM86.84 9.10L86.84 9.10Q86.25 9.10 86.04 8.90L86.04 8.90L86.04 8.90Q85.83 8.69 85.83 8.12L85.83 8.12L85.83 8.12Q85.83 7.53 86.05 7.32L86.05 7.32L86.05 7.32Q86.27 7.11 86.84 7.11L86.84 7.11L86.84 7.11Q87.42 7.11 87.62 7.32L87.62 7.32L87.62 7.32Q87.82 7.53 87.82 8.12L87.82 8.12L87.82 8.12Q87.82 8.69 87.63 8.90L87.63 8.90L87.63 8.90Q87.43 9.10 86.84 9.10L86.84 9.10ZM89.96 17.18L89.96 10.18L90.78 10.18L91.24 10.88L91.24 10.88Q91.78 10.44 92.44 10.23L92.44 10.23L92.44 10.23Q93.09 10.02 93.88 10.02L93.88 10.02L93.88 10.02Q94.86 10.02 95.38 10.35L95.38 10.35L95.38 10.35Q95.90 10.68 95.90 11.31L95.90 11.31L95.90 17.18L94.18 17.18L94.18 11.44L92.72 11.44L92.72 11.44Q92.12 11.44 91.90 11.59L91.90 11.59L91.90 11.59Q91.69 11.75 91.69 12.15L91.69 12.15L91.69 17.18L89.96 17.18ZM100.86 10.02L100.86 10.02Q102.34 10.02 102.96 10.50L102.96 10.50L102.96 10.50Q103.59 10.98 103.59 12.10L103.59 12.10L103.59 17.18L102.76 17.18L102.31 16.48L102.31 16.48Q101.32 17.33 99.83 17.33L99.83 17.33L99.83 17.33Q98.66 17.33 98.14 16.83L98.14 16.83L98.14 16.83Q97.62 16.32 97.62 15.18L97.62 15.18L97.62 15.18Q97.62 14.20 97.92 13.73L97.92 13.73L97.92 13.73Q98.22 13.27 99.04 13.10L99.04 13.10L99.04 13.10Q99.86 12.92 101.60 12.92L101.60 12.92L101.86 12.92L101.86 11.48L101.86 11.48Q101.39 11.34 100.60 11.34L100.60 11.34L100.60 11.34Q99.43 11.34 98.15 11.69L98.15 11.69L97.93 10.46L97.93 10.46Q98.50 10.26 99.30 10.14L99.30 10.14L99.30 10.14Q100.09 10.02 100.86 10.02L100.86 10.02ZM100.77 16.07L100.77 16.07Q101.40 16.07 101.63 15.91L101.63 15.91L101.63 15.91Q101.86 15.75 101.86 15.32L101.86 15.32L101.86 13.94L100.30 13.94L100.30 13.94Q99.65 13.94 99.42 14.11L99.42 14.11L99.42 14.11Q99.19 14.27 99.19 14.71L99.19 14.71L99.19 16.07L100.77 16.07ZM105.78 17.18L105.78 10.18L106.60 10.18L107.06 10.88L107.06 10.88Q107.60 10.44 108.26 10.23L108.26 10.23L108.26 10.23Q108.91 10.02 109.70 10.02L109.70 10.02L109.70 10.02Q110.68 10.02 111.20 10.35L111.20 10.35L111.20 10.35Q111.72 10.68 111.72 11.31L111.72 11.31L111.72 17.18L110.00 17.18L110.00 11.44L108.54 11.44L108.54 11.44Q107.94 11.44 107.72 11.59L107.72 11.59L107.72 11.59Q107.51 11.75 107.51 12.15L107.51 12.15L107.51 17.18L105.78 17.18ZM116.19 17.33L116.19 17.33Q115.14 17.33 114.56 17.00L114.56 17.00L114.56 17.00Q113.99 16.67 113.75 15.90L113.75 15.90L113.75 15.90Q113.51 15.12 113.51 13.68L113.51 13.68L113.51 13.68Q113.51 12.24 113.75 11.45L113.75 11.45L113.75 11.45Q113.99 10.67 114.56 10.35L114.56 10.35L114.56 10.35Q115.14 10.02 116.19 10.02L116.19 10.02L116.19 10.02Q116.76 10.02 117.41 10.10L117.41 10.10L117.41 10.10Q118.06 10.18 118.48 10.29L118.48 10.29L118.30 11.55L118.30 11.55Q117.38 11.34 116.48 11.34L116.48 11.34L116.48 11.34Q115.84 11.34 115.58 11.60L115.58 11.60L115.58 11.60Q115.33 11.86 115.33 12.49L115.33 12.49L115.33 15.88L115.33 15.88Q115.77 16.02 116.59 16.02L116.59 16.02L116.59 16.02Q117.04 16.02 117.47 15.94L117.47 15.94L117.47 15.94Q117.89 15.86 118.47 15.67L118.47 15.67L118.64 16.90L118.64 16.90Q117.60 17.33 116.19 17.33L116.19 17.33ZM120.09 17.18L120.09 17.18ZM120.23 10.33L121.95 10.09L121.95 17.18L120.23 17.18L120.23 10.33ZM121.10 9.10L121.10 9.10Q120.51 9.10 120.30 8.90L120.30 8.90L120.30 8.90Q120.09 8.69 120.09 8.12L120.09 8.12L120.09 8.12Q120.09 7.53 120.31 7.32L120.31 7.32L120.31 7.32Q120.53 7.11 121.10 7.11L121.10 7.11L121.10 7.11Q121.67 7.11 121.88 7.32L121.88 7.32L121.88 7.32Q122.08 7.53 122.08 8.12L122.08 8.12L122.08 8.12Q122.08 8.69 121.88 8.90L121.88 8.90L121.88 8.90Q121.69 9.10 121.10 9.10L121.10 9.10ZM126.99 10.02L126.99 10.02Q128.48 10.02 129.10 10.50L129.10 10.50L129.10 10.50Q129.72 10.98 129.72 12.10L129.72 12.10L129.72 17.18L128.90 17.18L128.45 16.48L128.45 16.48Q127.46 17.33 125.97 17.33L125.97 17.33L125.97 17.33Q124.80 17.33 124.28 16.83L124.28 16.83L124.28 16.83Q123.76 16.32 123.76 15.18L123.76 15.18L123.76 15.18Q123.76 14.20 124.06 13.73L124.06 13.73L124.06 13.73Q124.36 13.27 125.18 13.10L125.18 13.10L125.18 13.10Q126.00 12.92 127.74 12.92L127.74 12.92L128.00 12.92L128.00 11.48L128.00 11.48Q127.53 11.34 126.74 11.34L126.74 11.34L126.74 11.34Q125.57 11.34 124.29 11.69L124.29 11.69L124.07 10.46L124.07 10.46Q124.64 10.26 125.43 10.14L125.43 10.14L125.43 10.14Q126.22 10.02 126.99 10.02L126.99 10.02ZM126.91 16.07L126.91 16.07Q127.54 16.07 127.77 15.91L127.77 15.91L127.77 15.91Q128.00 15.75 128.00 15.32L128.00 15.32L128.00 13.94L126.43 13.94L126.43 13.94Q125.79 13.94 125.56 14.11L125.56 14.11L125.56 14.11Q125.33 14.27 125.33 14.71L125.33 14.71L125.33 16.07L126.91 16.07ZM133.59 15.92L133.59 15.92Q133.87 15.97 134.25 16.00L134.25 16.00L134.15 17.16L134.15 17.16Q133.52 17.33 133.08 17.33L133.08 17.33L133.08 17.33Q132.47 17.33 132.17 17.05L132.17 17.05L132.17 17.05Q131.87 16.77 131.87 16.17L131.87 16.17L131.87 8.08L133.59 7.87L133.59 15.92ZM139.19 8.43L140.91 8.43L140.91 17.18L139.19 17.18L139.19 8.43ZM143.18 17.18L143.18 10.18L143.99 10.18L144.45 10.88L144.45 10.88Q145.00 10.44 145.65 10.23L145.65 10.23L145.65 10.23Q146.30 10.02 147.10 10.02L147.10 10.02L147.10 10.02Q148.08 10.02 148.60 10.35L148.60 10.35L148.60 10.35Q149.11 10.68 149.11 11.31L149.11 11.31L149.11 17.18L147.39 17.18L147.39 11.44L145.94 11.44L145.94 11.44Q145.33 11.44 145.12 11.59L145.12 11.59L145.12 11.59Q144.90 11.75 144.90 12.15L144.90 12.15L144.90 17.18L143.18 17.18ZM155.36 7.91L157.08 7.74L157.08 17.18L156.27 17.18L155.92 16.59L155.92 16.59Q155.61 17.02 155.08 17.21L155.08 17.21L155.08 17.21Q154.55 17.39 153.65 17.39L153.65 17.39L153.65 17.39Q152.54 17.39 151.96 17.07L151.96 17.07L151.96 17.07Q151.38 16.76 151.14 15.97L151.14 15.97L151.14 15.97Q150.91 15.19 150.91 13.68L150.91 13.68L150.91 13.68Q150.91 12.24 151.14 11.46L151.14 11.46L151.14 11.46Q151.37 10.68 151.92 10.35L151.92 10.35L151.92 10.35Q152.47 10.02 153.48 10.02L153.48 10.02L153.48 10.02Q154.76 10.02 155.36 10.35L155.36 10.35L155.36 7.91ZM154.73 16.02L154.73 16.02Q155.09 16.02 155.23 15.95L155.23 15.95L155.23 15.95Q155.36 15.88 155.36 15.67L155.36 15.67L155.36 11.38L153.34 11.38L153.34 11.38Q152.99 11.38 152.86 11.46L152.86 11.46L152.86 11.46Q152.73 11.54 152.73 11.75L152.73 11.75L152.73 16.02L154.73 16.02ZM162.16 16.02L162.16 16.02Q162.74 16.02 163.30 15.93L163.30 15.93L163.30 15.93Q163.86 15.85 164.60 15.67L164.60 15.67L164.81 16.90L164.81 16.90Q164.25 17.11 163.49 17.22L163.49 17.22L163.49 17.22Q162.72 17.33 161.90 17.33L161.90 17.33L161.90 17.33Q160.76 17.33 160.13 17.00L160.13 17.00L160.13 17.00Q159.50 16.66 159.23 15.88L159.23 15.88L159.23 15.88Q158.96 15.11 158.96 13.68L158.96 13.68L158.96 13.68Q158.96 12.29 159.26 11.51L159.26 11.51L159.26 11.51Q159.56 10.72 160.23 10.37L160.23 10.37L160.23 10.37Q160.90 10.02 162.08 10.02L162.08 10.02L162.08 10.02Q163.24 10.02 163.86 10.21L163.86 10.21L163.86 10.21Q164.49 10.40 164.74 10.86L164.74 10.86L164.74 10.86Q164.99 11.33 164.99 12.18L164.99 12.18L164.99 12.18Q164.99 13.16 164.68 13.62L164.68 13.62L164.68 13.62Q164.36 14.08 163.49 14.26L163.49 14.26L163.49 14.26Q162.62 14.43 160.78 14.43L160.78 14.43L160.78 15.88L160.78 15.88Q161.29 16.02 162.16 16.02L162.16 16.02ZM161.90 11.37L161.90 11.37Q161.25 11.37 161.01 11.53L161.01 11.53L161.01 11.53Q160.78 11.69 160.78 12.12L160.78 12.12L160.78 13.41L162.32 13.41L162.32 13.41Q162.96 13.41 163.21 13.25L163.21 13.25L163.21 13.25Q163.45 13.09 163.45 12.64L163.45 12.64L163.45 11.37L161.90 11.37ZM170.56 10.02L170.56 10.02Q171.61 10.02 172.17 10.35L172.17 10.35L172.17 10.35Q172.73 10.67 172.96 11.45L172.96 11.45L172.96 11.45Q173.19 12.22 173.19 13.68L173.19 13.68L173.19 13.68Q173.19 15.15 172.96 15.94L172.96 15.94L172.96 15.94Q172.72 16.73 172.16 17.06L172.16 17.06L172.16 17.06Q171.60 17.39 170.56 17.39L170.56 17.39L170.56 17.39Q169.34 17.39 168.74 17.08L168.74 17.08L168.74 19.45L167.02 19.61L167.02 10.18L167.83 10.18L168.20 10.79L168.20 10.79Q168.52 10.36 169.07 10.19L169.07 10.19L169.07 10.19Q169.62 10.02 170.56 10.02L170.56 10.02ZM171.37 15.67L171.37 11.38L169.36 11.38L169.36 11.38Q169.01 11.38 168.88 11.45L168.88 11.45L168.88 11.45Q168.74 11.52 168.74 11.69L168.74 11.69L168.74 16.02L170.74 16.02L170.74 16.02Q171.11 16.02 171.24 15.95L171.24 15.95L171.24 15.95Q171.37 15.88 171.37 15.67L171.37 15.67ZM177.88 16.02L177.88 16.02Q178.46 16.02 179.02 15.93L179.02 15.93L179.02 15.93Q179.58 15.85 180.32 15.67L180.32 15.67L180.53 16.90L180.53 16.90Q179.97 17.11 179.21 17.22L179.21 17.22L179.21 17.22Q178.44 17.33 177.62 17.33L177.62 17.33L177.62 17.33Q176.48 17.33 175.85 17.00L175.85 17.00L175.85 17.00Q175.22 16.66 174.95 15.88L174.95 15.88L174.95 15.88Q174.68 15.11 174.68 13.68L174.68 13.68L174.68 13.68Q174.68 12.29 174.98 11.51L174.98 11.51L174.98 11.51Q175.28 10.72 175.95 10.37L175.95 10.37L175.95 10.37Q176.62 10.02 177.80 10.02L177.80 10.02L177.80 10.02Q178.96 10.02 179.59 10.21L179.59 10.21L179.59 10.21Q180.21 10.40 180.46 10.86L180.46 10.86L180.46 10.86Q180.71 11.33 180.71 12.18L180.71 12.18L180.71 12.18Q180.71 13.16 180.40 13.62L180.40 13.62L180.40 13.62Q180.08 14.08 179.21 14.26L179.21 14.26L179.21 14.26Q178.35 14.43 176.50 14.43L176.50 14.43L176.50 15.88L176.50 15.88Q177.02 16.02 177.88 16.02L177.88 16.02ZM177.62 11.37L177.62 11.37Q176.97 11.37 176.74 11.53L176.74 11.53L176.74 11.53Q176.50 11.69 176.50 12.12L176.50 12.12L176.50 13.41L178.04 13.41L178.04 13.41Q178.68 13.41 178.93 13.25L178.93 13.25L178.93 13.25Q179.17 13.09 179.17 12.64L179.17 12.64L179.17 11.37L177.62 11.37ZM182.74 17.18L182.74 10.18L183.55 10.18L184.02 10.88L184.02 10.88Q184.56 10.44 185.21 10.23L185.21 10.23L185.21 10.23Q185.86 10.02 186.66 10.02L186.66 10.02L186.66 10.02Q187.64 10.02 188.16 10.35L188.16 10.35L188.16 10.35Q188.68 10.68 188.68 11.31L188.68 11.31L188.68 17.18L186.96 17.18L186.96 11.44L185.50 11.44L185.50 11.44Q184.90 11.44 184.68 11.59L184.68 11.59L184.68 11.59Q184.46 11.75 184.46 12.15L184.46 12.15L184.46 17.18L182.74 17.18ZM194.92 7.91L196.64 7.74L196.64 17.18L195.83 17.18L195.48 16.59L195.48 16.59Q195.17 17.02 194.64 17.21L194.64 17.21L194.64 17.21Q194.11 17.39 193.21 17.39L193.21 17.39L193.21 17.39Q192.11 17.39 191.53 17.07L191.53 17.07L191.53 17.07Q190.95 16.76 190.71 15.97L190.71 15.97L190.71 15.97Q190.47 15.19 190.47 13.68L190.47 13.68L190.47 13.68Q190.47 12.24 190.70 11.46L190.70 11.46L190.70 11.46Q190.93 10.68 191.49 10.35L191.49 10.35L191.49 10.35Q192.04 10.02 193.05 10.02L193.05 10.02L193.05 10.02Q194.32 10.02 194.92 10.35L194.92 10.35L194.92 7.91ZM194.29 16.02L194.29 16.02Q194.66 16.02 194.79 15.95L194.79 15.95L194.79 15.95Q194.92 15.88 194.92 15.67L194.92 15.67L194.92 11.38L192.91 11.38L192.91 11.38Q192.56 11.38 192.42 11.46L192.42 11.46L192.42 11.46Q192.29 11.54 192.29 11.75L192.29 11.75L192.29 16.02L194.29 16.02ZM201.73 16.02L201.73 16.02Q202.30 16.02 202.86 15.93L202.86 15.93L202.86 15.93Q203.42 15.85 204.16 15.67L204.16 15.67L204.37 16.90L204.37 16.90Q203.81 17.11 203.05 17.22L203.05 17.22L203.05 17.22Q202.29 17.33 201.46 17.33L201.46 17.33L201.46 17.33Q200.33 17.33 199.70 17.00L199.70 17.00L199.70 17.00Q199.07 16.66 198.79 15.88L198.79 15.88L198.79 15.88Q198.52 15.11 198.52 13.68L198.52 13.68L198.52 13.68Q198.52 12.29 198.82 11.51L198.82 11.51L198.82 11.51Q199.12 10.72 199.79 10.37L199.79 10.37L199.79 10.37Q200.47 10.02 201.64 10.02L201.64 10.02L201.64 10.02Q202.80 10.02 203.43 10.21L203.43 10.21L203.43 10.21Q204.05 10.40 204.30 10.86L204.30 10.86L204.30 10.86Q204.55 11.33 204.55 12.18L204.55 12.18L204.55 12.18Q204.55 13.16 204.24 13.62L204.24 13.62L204.24 13.62Q203.92 14.08 203.06 14.26L203.06 14.26L203.06 14.26Q202.19 14.43 200.34 14.43L200.34 14.43L200.34 15.88L200.34 15.88Q200.86 16.02 201.73 16.02L201.73 16.02ZM201.46 11.37L201.46 11.37Q200.82 11.37 200.58 11.53L200.58 11.53L200.58 11.53Q200.34 11.69 200.34 12.12L200.34 12.12L200.34 13.41L201.88 13.41L201.88 13.41Q202.52 13.41 202.77 13.25L202.77 13.25L202.77 13.25Q203.01 13.09 203.01 12.64L203.01 12.64L203.01 11.37L201.46 11.37ZM206.58 17.18L206.58 10.18L207.40 10.18L207.86 10.88L207.86 10.88Q208.40 10.44 209.06 10.23L209.06 10.23L209.06 10.23Q209.71 10.02 210.50 10.02L210.50 10.02L210.50 10.02Q211.48 10.02 212.00 10.35L212.00 10.35L212.00 10.35Q212.52 10.68 212.52 11.31L212.52 11.31L212.52 17.18L210.80 17.18L210.80 11.44L209.34 11.44L209.34 11.44Q208.74 11.44 208.52 11.59L208.52 11.59L208.52 11.59Q208.31 11.75 208.31 12.15L208.31 12.15L208.31 17.18L206.58 17.18ZM216.99 17.33L216.99 17.33Q215.94 17.33 215.36 17.00L215.36 17.00L215.36 17.00Q214.79 16.67 214.55 15.90L214.55 15.90L214.55 15.90Q214.31 15.12 214.31 13.68L214.31 13.68L214.31 13.68Q214.31 12.24 214.55 11.45L214.55 11.45L214.55 11.45Q214.79 10.67 215.36 10.35L215.36 10.35L215.36 10.35Q215.94 10.02 216.99 10.02L216.99 10.02L216.99 10.02Q217.56 10.02 218.21 10.10L218.21 10.10L218.21 10.10Q218.86 10.18 219.28 10.29L219.28 10.29L219.10 11.55L219.10 11.55Q218.18 11.34 217.28 11.34L217.28 11.34L217.28 11.34Q216.64 11.34 216.38 11.60L216.38 11.60L216.38 11.60Q216.13 11.86 216.13 12.49L216.13 12.49L216.13 15.88L216.13 15.88Q216.57 16.02 217.39 16.02L217.39 16.02L217.39 16.02Q217.84 16.02 218.27 15.94L218.27 15.94L218.27 15.94Q218.69 15.86 219.27 15.67L219.27 15.67L219.44 16.90L219.44 16.90Q218.40 17.33 216.99 17.33L216.99 17.33ZM223.85 16.02L223.85 16.02Q224.42 16.02 224.98 15.93L224.98 15.93L224.98 15.93Q225.54 15.85 226.28 15.67L226.28 15.67L226.49 16.90L226.49 16.90Q225.93 17.11 225.17 17.22L225.17 17.22L225.17 17.22Q224.41 17.33 223.58 17.33L223.58 17.33L223.58 17.33Q222.45 17.33 221.82 17.00L221.82 17.00L221.82 17.00Q221.19 16.66 220.91 15.88L220.91 15.88L220.91 15.88Q220.64 15.11 220.64 13.68L220.64 13.68L220.64 13.68Q220.64 12.29 220.94 11.51L220.94 11.51L220.94 11.51Q221.24 10.72 221.91 10.37L221.91 10.37L221.91 10.37Q222.59 10.02 223.76 10.02L223.76 10.02L223.76 10.02Q224.92 10.02 225.55 10.21L225.55 10.21L225.55 10.21Q226.17 10.40 226.42 10.86L226.42 10.86L226.42 10.86Q226.67 11.33 226.67 12.18L226.67 12.18L226.67 12.18Q226.67 13.16 226.36 13.62L226.36 13.62L226.36 13.62Q226.04 14.08 225.18 14.26L225.18 14.26L225.18 14.26Q224.31 14.43 222.46 14.43L222.46 14.43L222.46 15.88L222.46 15.88Q222.98 16.02 223.85 16.02L223.85 16.02ZM223.58 11.37L223.58 11.37Q222.94 11.37 222.70 11.53L222.70 11.53L222.70 11.53Q222.46 11.69 222.46 12.12L222.46 12.12L222.46 13.41L224.00 13.41L224.00 13.41Q224.64 13.41 224.89 13.25L224.89 13.25L224.89 13.25Q225.13 13.09 225.13 12.64L225.13 12.64L225.13 11.37L223.58 11.37Z"></path></g></svg>