<svg data-v-fde0c5aa="" xmlns="http://www.w3.org/2000/svg" viewBox="0 0 300 300" class="icon"><!----><defs data-v-fde0c5aa=""><linearGradient data-v-fde0c5aa="" gradientTransform="rotate(25)" id="daa492d2-8a63-4191-b2ab-48131a2e7e1d" x1="0%" y1="0%" x2="100%" y2="0%"><stop data-v-fde0c5aa="" offset="0%" stop-color="#462AB9" stop-opacity="1"></stop><stop data-v-fde0c5aa="" offset="100%" stop-color="#737048" stop-opacity="1"></stop></linearGradient></defs><rect data-v-fde0c5aa="" fill="url(#daa492d2-8a63-4191-b2ab-48131a2e7e1d)" x="0" y="0" width="300px" height="300px" class="logo-background-square"></rect><!----><defs data-v-fde0c5aa=""><!----></defs><g data-v-fde0c5aa="" id="e9fcdc92-c526-4729-b201-a49f4503e885" fill="#ffffff" stroke="none" transform="matrix(2.2,0,0,2.2,39.999532127380355,39.999999999999986)"><path d="M70.648 19.656s-1.046 2.302-.837 4.602c.209 2.301 2.72 3.137 2.72 3.137s1.198-3.301.326-5.232c-.871-1.932-2.209-2.507-2.209-2.507z"></path><path d="M83.446 54.733c-2.389-16.672-11.125-22.944-11.125-22.944s4.637 8.959-5.199 17.475c-.864-2.816-2.02-5.574-3.306-8.243-4.519-9.386.648-14.836-.229-23.53C62.71 8.798 57.907 0 51.997 0c0 0 5.604 4.851 1.738 13.557-1.941 4.995-7.05 6.853-11.926 14.748-4.877 7.896-3.548 12.527-4.742 16.324-6.14-6.857 1.758-19.799-3.657-26.229.736 9.673-7.393 10.371-13.807 25.942C8.483 78.702 23.347 100 51.234 100c22.507.001 36.093-16.886 32.212-45.267zm-8.944 16.964C71.534 85.456 62.943 91.01 49.704 91.01c-12.618 0-22.993-10.372-22.993-26.962-.408-9.561 2.315-14.933 5.774-19.409.312 8.324 3.597 11.317 6.759 13.155 1.001-8.692 11.094-13.275 11.472-24.641 2.645 0 10.945 10.266 9.207 18.61-1.328 6.374 3.202 12.083 3.202 12.083 6.379-.388 8.813-9.521 8.813-9.521s4.342 7.022 2.564 17.372z"></path></g><!----></svg>